<svg width="75" height="74" viewBox="0 0 75 74" fill="none" xmlns="http://www.w3.org/2000/svg">
<path d="M3.03736 44.8315C3.03736 41.3723 3.71868 37.9468 5.04251 34.751C6.36635 31.5549 8.30665 28.6511 10.7527 26.205C13.1988 23.7589 16.1027 21.8186 19.2986 20.4947C22.4946 19.1711 25.92 18.4896 29.3793 18.4896V44.8315H3.03736Z" fill="#442781"/>
<path d="M3.03736 44.8314C3.03736 48.2908 3.71868 51.7161 5.04251 54.9122C6.36635 58.1081 8.30665 61.012 10.7527 63.4581C13.1988 65.9041 16.1027 67.8445 19.2986 69.1683C22.4946 70.4921 25.92 71.1734 29.3793 71.1734V44.8314H3.03736Z" fill="#61459C"/>
<path d="M55.7209 44.8314C55.7209 48.2908 55.0401 51.7161 53.7164 54.9122C52.3926 58.1081 50.4523 61.012 48.0058 63.4581C45.5597 65.9041 42.6559 67.8445 39.4598 69.1683C36.264 70.4921 32.8385 71.1734 29.3793 71.1734V44.8314H55.7209Z" fill="#A992DB"/>
<path d="M71.9627 22.0745C71.9627 32.9978 63.1071 41.853 52.1839 41.853H32.4055V22.0745C32.4055 11.1511 41.2607 2.2959 52.1839 2.2959C63.1071 2.2959 71.9627 11.1511 71.9627 22.0745Z" fill="#FF7917"/>
</svg>
